<?xml version="1.0" encoding="utf-8"?>
<!-- Generator: Adobe Illustrator 16.0.0, SVG Export Plug-In . SVG Version: 6.00 Build 0)  -->
<!DOCTYPE svg PUBLIC "-//W3C//DTD SVG 1.1//EN" "http://www.w3.org/Graphics/SVG/1.1/DTD/svg11.dtd">
<svg version="1.1" id="Layer_1" xmlns="http://www.w3.org/2000/svg" xmlns:xlink="http://www.w3.org/1999/xlink" x="0px" y="0px"
	 width="21px" height="173.282px" viewBox="0 0 21 173.282" enable-background="new 0 0 21 173.282" xml:space="preserve">
<g enable-background="new    ">
	<path fill="#3C3C3B" d="M7.332,8.101h0.78V8.077c-0.624-0.48-0.937-1.128-0.937-1.944c0-0.8,0.292-1.45,0.876-1.95
		c0.584-0.5,1.28-0.75,2.088-0.75c0.832,0,1.538,0.248,2.118,0.744s0.87,1.152,0.87,1.968c0,0.8-0.32,1.444-0.96,1.932v0.024h5.064
		v0.96h-9.9V8.101z M12.24,6.253c0-0.536-0.2-0.976-0.601-1.32c-0.399-0.344-0.876-0.516-1.428-0.516
		c-0.584,0-1.088,0.166-1.512,0.498s-0.636,0.782-0.636,1.35c0,0.592,0.205,1.054,0.617,1.386S9.6,8.149,10.2,8.149
		c0.584,0,1.069-0.172,1.458-0.516C12.046,7.289,12.24,6.829,12.24,6.253z"/>
	<path fill="#3C3C3B" d="M9.948,15.745v-4.428c-0.528,0.008-0.975,0.184-1.338,0.528c-0.364,0.344-0.546,0.784-0.546,1.32
		c0,0.712,0.388,1.284,1.164,1.716L8.76,15.697c-1.056-0.568-1.584-1.436-1.584-2.604c0-0.824,0.278-1.49,0.834-1.998
		c0.557-0.508,1.246-0.762,2.07-0.762c0.872,0,1.598,0.244,2.178,0.732c0.58,0.488,0.87,1.156,0.87,2.004
		c0,0.872-0.31,1.548-0.93,2.028S10.828,15.793,9.948,15.745z M10.764,11.365v3.372c0.416-0.064,0.767-0.252,1.051-0.564
		c0.283-0.312,0.426-0.676,0.426-1.092s-0.145-0.792-0.433-1.128C11.521,11.617,11.172,11.421,10.764,11.365z"/>
	<path fill="#3C3C3B" d="M12.084,20.149l-0.42-0.804c0.16-0.072,0.296-0.176,0.408-0.312c0.111-0.136,0.168-0.288,0.168-0.456
		c0-0.176-0.061-0.336-0.181-0.48c-0.119-0.144-0.268-0.216-0.443-0.216c-0.072,0-0.138,0.01-0.198,0.03
		c-0.06,0.02-0.118,0.06-0.174,0.12c-0.057,0.06-0.104,0.112-0.145,0.156c-0.04,0.043-0.084,0.118-0.132,0.222
		s-0.084,0.18-0.107,0.228c-0.024,0.048-0.064,0.14-0.12,0.276c-0.057,0.136-0.092,0.228-0.108,0.276
		c-0.168,0.4-0.372,0.718-0.611,0.954c-0.24,0.236-0.576,0.354-1.009,0.354c-0.527,0-0.966-0.186-1.313-0.558
		c-0.349-0.372-0.522-0.822-0.522-1.35c0-0.472,0.126-0.884,0.378-1.236C7.806,17,8.156,16.749,8.604,16.597l0.359,0.852
		c-0.296,0.136-0.52,0.288-0.672,0.456s-0.228,0.4-0.228,0.696c0,0.264,0.079,0.481,0.239,0.654c0.16,0.172,0.368,0.258,0.624,0.258
		c0.232,0,0.424-0.088,0.576-0.264c0.152-0.176,0.278-0.388,0.378-0.636c0.101-0.248,0.208-0.496,0.324-0.744
		s0.284-0.46,0.504-0.636c0.22-0.176,0.494-0.264,0.822-0.264c0.464,0,0.846,0.164,1.146,0.492c0.301,0.328,0.45,0.724,0.45,1.188
		c0,0.32-0.098,0.618-0.294,0.894C12.638,19.819,12.388,20.021,12.084,20.149z"/>
	<path fill="#3C3C3B" d="M12.972,22.993h-5.64v-0.96h5.64V22.993z M15.576,22.033c0.136,0.136,0.204,0.296,0.204,0.48
		s-0.068,0.344-0.204,0.48c-0.137,0.136-0.296,0.204-0.48,0.204c-0.191,0-0.354-0.068-0.485-0.204
		c-0.132-0.136-0.198-0.296-0.198-0.48s0.066-0.344,0.198-0.48c0.132-0.136,0.294-0.204,0.485-0.204
		C15.28,21.829,15.439,21.897,15.576,22.033z"/>
	<path fill="#3C3C3B" d="M12.972,30.084H7.608c-0.393,0-0.69-0.006-0.895-0.018c-0.204-0.012-0.452-0.062-0.744-0.15
		c-0.292-0.088-0.554-0.224-0.786-0.408c-0.663-0.52-0.995-1.248-0.995-2.184c0-0.8,0.235-1.458,0.708-1.974
		c0.472-0.516,1.1-0.782,1.884-0.798v0.96c-0.512,0.008-0.924,0.18-1.236,0.516c-0.312,0.336-0.468,0.764-0.468,1.284
		c0,0.36,0.062,0.662,0.186,0.906s0.301,0.43,0.528,0.558s0.474,0.218,0.738,0.27c0.264,0.052,0.567,0.078,0.912,0.078h0.672v-0.024
		c-0.296-0.224-0.526-0.51-0.69-0.858c-0.164-0.348-0.246-0.714-0.246-1.098c0-0.8,0.288-1.448,0.864-1.944
		c0.576-0.496,1.272-0.744,2.088-0.744c0.824,0,1.53,0.252,2.118,0.756s0.882,1.16,0.882,1.968c0,0.8-0.32,1.44-0.96,1.92v0.024
		h0.804V30.084z M12.24,27.276c0-0.536-0.2-0.976-0.601-1.32c-0.399-0.344-0.876-0.516-1.428-0.516
		c-0.584,0-1.088,0.166-1.512,0.498s-0.636,0.782-0.636,1.35c0,0.592,0.205,1.054,0.617,1.386S9.6,29.172,10.2,29.172
		c0.584,0,1.069-0.172,1.458-0.516C12.046,28.312,12.24,27.853,12.24,27.276z"/>
	<path fill="#3C3C3B" d="M12.972,32.917h-0.684v0.024c0.56,0.408,0.84,0.944,0.84,1.608c0,0.72-0.22,1.22-0.66,1.5
		c-0.439,0.28-1.036,0.42-1.788,0.42H7.332v-0.96h3.18c0.272,0,0.494-0.01,0.666-0.03s0.349-0.066,0.528-0.138
		c0.18-0.072,0.313-0.194,0.402-0.366c0.088-0.172,0.132-0.39,0.132-0.654c0-0.256-0.048-0.474-0.145-0.654
		c-0.096-0.18-0.212-0.318-0.348-0.414s-0.312-0.17-0.528-0.222c-0.216-0.052-0.41-0.084-0.582-0.096
		c-0.172-0.012-0.382-0.018-0.63-0.018H7.332v-0.96h5.64V32.917z"/>
	<path fill="#3C3C3B" d="M12.972,42.205l-3.815,1.668l4.248,1.752l-4.248,1.764l3.815,1.68v1.092l-6.036-2.796l4.2-1.74l-4.2-1.74
		l6.036-2.772V42.205z"/>
	<path fill="#3C3C3B" d="M9.948,56.016v-4.428c-0.528,0.008-0.975,0.184-1.338,0.528c-0.364,0.344-0.546,0.784-0.546,1.32
		c0,0.712,0.388,1.284,1.164,1.716L8.76,55.968c-1.056-0.568-1.584-1.436-1.584-2.604c0-0.824,0.278-1.49,0.834-1.998
		c0.557-0.508,1.246-0.762,2.07-0.762c0.872,0,1.598,0.244,2.178,0.732c0.58,0.488,0.87,1.156,0.87,2.004
		c0,0.872-0.31,1.548-0.93,2.028S10.828,56.064,9.948,56.016z M10.764,51.636v3.372c0.416-0.064,0.767-0.252,1.051-0.564
		c0.283-0.312,0.426-0.676,0.426-1.092s-0.145-0.792-0.433-1.128C11.521,51.888,11.172,51.692,10.764,51.636z"/>
	<path fill="#3C3C3B" d="M7.332,57.288h9.9v0.96h-5.064v0.024c0.64,0.488,0.96,1.132,0.96,1.932c0,0.816-0.29,1.472-0.87,1.968
		s-1.282,0.744-2.105,0.744c-0.816,0-1.517-0.25-2.101-0.75c-0.584-0.5-0.876-1.15-0.876-1.95c0-0.832,0.312-1.48,0.937-1.944
		v-0.024h-0.78V57.288z M12.24,60.036c0-0.536-0.2-0.976-0.601-1.32c-0.399-0.344-0.876-0.516-1.428-0.516
		c-0.584,0-1.088,0.166-1.512,0.498s-0.636,0.782-0.636,1.35c0,0.592,0.205,1.054,0.617,1.386S9.6,61.932,10.2,61.932
		c0.584,0,1.069-0.172,1.458-0.516C12.046,61.072,12.24,60.612,12.24,60.036z"/>
	<path fill="#3C3C3B" d="M8.328,68.418c0.128,0.132,0.192,0.29,0.192,0.474c0,0.184-0.064,0.342-0.192,0.474
		C8.2,69.499,8.044,69.564,7.86,69.564c-0.185,0-0.345-0.066-0.48-0.198c-0.136-0.132-0.204-0.29-0.204-0.474
		c0-0.184,0.068-0.342,0.204-0.474s0.296-0.198,0.48-0.198C8.044,68.22,8.2,68.287,8.328,68.418z M12.936,68.418
		c0.128,0.132,0.192,0.29,0.192,0.474c0,0.184-0.064,0.342-0.192,0.474c-0.128,0.132-0.283,0.198-0.468,0.198
		c-0.184,0-0.344-0.066-0.479-0.198c-0.137-0.132-0.204-0.29-0.204-0.474c0-0.184,0.067-0.342,0.204-0.474
		c0.136-0.132,0.296-0.198,0.479-0.198C12.652,68.22,12.808,68.287,12.936,68.418z"/>
	<path fill="#3C3C3B" d="M11.88,79.993v3.768c-0.688,0.016-1.28-0.041-1.775-0.168c-0.497-0.128-0.969-0.384-1.416-0.768
		c-0.48-0.408-0.853-0.91-1.116-1.506c-0.265-0.596-0.396-1.21-0.396-1.842c0-1.272,0.458-2.366,1.374-3.282s2.01-1.374,3.282-1.374
		c1.296,0,2.404,0.46,3.324,1.38c0.92,0.92,1.38,2.032,1.38,3.336c0,1.552-0.652,2.828-1.956,3.828l-0.684-0.732
		c1.136-0.808,1.703-1.844,1.703-3.108c0-1.024-0.371-1.896-1.115-2.616c-0.744-0.72-1.633-1.08-2.664-1.08
		c-0.984,0-1.836,0.352-2.557,1.056c-0.344,0.344-0.622,0.744-0.834,1.2s-0.317,0.912-0.317,1.368c0,0.824,0.27,1.568,0.81,2.232
		s1.214,0.996,2.022,0.996v-2.688H11.88z"/>
	<path fill="#3C3C3B" d="M9.948,90.096v-4.428c-0.528,0.008-0.975,0.184-1.338,0.528c-0.364,0.344-0.546,0.784-0.546,1.32
		c0,0.713,0.388,1.284,1.164,1.717L8.76,90.048c-1.056-0.567-1.584-1.437-1.584-2.604c0-0.824,0.278-1.49,0.834-1.998
		c0.557-0.508,1.246-0.762,2.07-0.762c0.872,0,1.598,0.244,2.178,0.732c0.58,0.488,0.87,1.156,0.87,2.004
		c0,0.872-0.31,1.548-0.93,2.027C11.578,89.928,10.828,90.145,9.948,90.096z M10.764,85.716v3.372
		c0.416-0.064,0.767-0.252,1.051-0.564c0.283-0.312,0.426-0.676,0.426-1.092s-0.145-0.792-0.433-1.128
		C11.521,85.968,11.172,85.772,10.764,85.716z"/>
	<path fill="#3C3C3B" d="M12.972,92.375h-0.684V92.4c0.56,0.408,0.84,0.944,0.84,1.608c0,0.72-0.22,1.219-0.66,1.5
		c-0.439,0.279-1.036,0.42-1.788,0.42H7.332v-0.961h3.18c0.272,0,0.494-0.01,0.666-0.029s0.349-0.066,0.528-0.139
		c0.18-0.071,0.313-0.193,0.402-0.365c0.088-0.172,0.132-0.391,0.132-0.654c0-0.256-0.048-0.475-0.145-0.654
		c-0.096-0.18-0.212-0.317-0.348-0.414c-0.136-0.096-0.312-0.17-0.528-0.222s-0.41-0.084-0.582-0.096
		c-0.172-0.013-0.382-0.019-0.63-0.019H7.332v-0.959h5.64V92.375z"/>
	<path fill="#3C3C3B" d="M12.084,98.76H7.332V97.8h4.752v-0.588h0.888V97.8H15v0.96h-2.028v1.008h-0.888V98.76z"/>
	<path fill="#3C3C3B" d="M12.972,101.772h-5.64v-0.96h5.64V101.772z M15.576,100.812c0.136,0.136,0.204,0.296,0.204,0.479
		c0,0.185-0.068,0.345-0.204,0.48c-0.137,0.137-0.296,0.204-0.48,0.204c-0.191,0-0.354-0.067-0.485-0.204
		c-0.132-0.136-0.198-0.296-0.198-0.48c0-0.184,0.066-0.344,0.198-0.479s0.294-0.204,0.485-0.204
		C15.28,100.608,15.439,100.676,15.576,100.812z"/>
	<path fill="#3C3C3B" d="M9.948,108.684v-4.428c-0.528,0.008-0.975,0.184-1.338,0.527c-0.364,0.344-0.546,0.784-0.546,1.32
		c0,0.712,0.388,1.283,1.164,1.716l-0.469,0.815c-1.056-0.567-1.584-1.436-1.584-2.604c0-0.824,0.278-1.49,0.834-1.998
		c0.557-0.508,1.246-0.762,2.07-0.762c0.872,0,1.598,0.244,2.178,0.732c0.58,0.487,0.87,1.155,0.87,2.004
		c0,0.871-0.31,1.547-0.93,2.027S10.828,108.732,9.948,108.684z M10.764,104.303v3.373c0.416-0.064,0.767-0.252,1.051-0.564
		c0.283-0.312,0.426-0.676,0.426-1.092s-0.145-0.793-0.433-1.129C11.521,104.555,11.172,104.36,10.764,104.303z"/>
	<path fill="#3C3C3B" d="M12.972,110.963h-0.684v0.024c0.56,0.408,0.84,0.944,0.84,1.608c0,0.72-0.22,1.219-0.66,1.5
		c-0.439,0.279-1.036,0.42-1.788,0.42H7.332v-0.961h3.18c0.272,0,0.494-0.01,0.666-0.029s0.349-0.066,0.528-0.139
		c0.18-0.071,0.313-0.193,0.402-0.365c0.088-0.172,0.132-0.391,0.132-0.654c0-0.256-0.048-0.475-0.145-0.654
		c-0.096-0.18-0.212-0.317-0.348-0.414c-0.136-0.096-0.312-0.17-0.528-0.222s-0.41-0.084-0.582-0.096
		c-0.172-0.013-0.382-0.019-0.63-0.019H7.332v-0.959h5.64V110.963z"/>
	<path fill="#3C3C3B" d="M9.9,125.256v-3.864l-2.568-1.093v-1.104l9.48,4.176l-9.48,4.068v-1.115L9.9,125.256z M10.836,124.86
		l3.624-1.512l-3.624-1.549V124.86z"/>
	<path fill="#3C3C3B" d="M11.304,129.432H7.332v-1.008h9.048v1.308c0,0.464-0.036,0.88-0.107,1.247
		c-0.072,0.369-0.196,0.717-0.372,1.045c-0.177,0.328-0.435,0.58-0.774,0.756s-0.754,0.264-1.242,0.264
		c-0.695,0-1.271-0.203-1.728-0.611s-0.712-0.961-0.769-1.656l-4.056,2.88v-1.235l3.972-2.736V129.432z M15.444,129.432h-3.252
		v0.312c0,0.319,0.02,0.603,0.06,0.847c0.04,0.243,0.114,0.483,0.222,0.719c0.108,0.236,0.274,0.416,0.498,0.541
		c0.225,0.123,0.504,0.186,0.841,0.186c0.287,0,0.533-0.044,0.737-0.132c0.204-0.089,0.364-0.196,0.48-0.324
		c0.115-0.128,0.206-0.3,0.27-0.517c0.064-0.215,0.104-0.422,0.12-0.617c0.016-0.196,0.024-0.434,0.024-0.714V129.432z"/>
	<path fill="#3C3C3B" d="M7.332,134.988h9.432l-7.392,7.056h7.008v1.008H6.924l7.38-7.056H7.332V134.988z"/>
	<path fill="#3C3C3B" d="M9.9,150.155v-3.863L7.332,145.2v-1.104l9.48,4.177l-9.48,4.067v-1.116L9.9,150.155z M10.836,149.759
		l3.624-1.512l-3.624-1.548V149.759z"/>
	<path fill="#3C3C3B" d="M16.38,154.307h-5.388c-0.344,0-0.588,0.002-0.732,0.006c-0.144,0.004-0.35,0.039-0.618,0.103
		c-0.268,0.063-0.489,0.16-0.666,0.288c-0.264,0.191-0.474,0.458-0.63,0.798c-0.155,0.341-0.233,0.683-0.233,1.026
		c0,0.328,0.071,0.654,0.216,0.979c0.144,0.323,0.34,0.59,0.588,0.797c0.168,0.137,0.374,0.24,0.618,0.312s0.448,0.111,0.612,0.12
		c0.163,0.008,0.397,0.012,0.701,0.012c0.064,0,0.112,0,0.145,0h5.388v1.009h-5.664c-0.576,0-1.052-0.051-1.428-0.15
		c-0.376-0.101-0.736-0.314-1.08-0.643c-0.688-0.64-1.032-1.451-1.032-2.436c0-0.928,0.309-1.709,0.924-2.34
		c0.345-0.36,0.716-0.599,1.116-0.715c0.4-0.115,0.9-0.174,1.5-0.174h5.664V154.307z"/>
	<path fill="#3C3C3B" d="M16.38,162.551H8.268v2.496H7.332v-3.504h9.048V162.551z"/>
	<path fill="#3C3C3B" d="M15.444,167.484H7.332v-1.008h8.112v-2.185h0.936v5.4h-0.936V167.484z"/>
</g>
</svg>
