<?xml version="1.0" encoding="utf-8"?>
<!-- Generator: Adobe Illustrator 15.0.0, SVG Export Plug-In . SVG Version: 6.00 Build 0)  -->
<!DOCTYPE svg PUBLIC "-//W3C//DTD SVG 1.0//EN" "http://www.w3.org/TR/2001/REC-SVG-20010904/DTD/svg10.dtd">
<svg version="1.0" xmlns="http://www.w3.org/2000/svg" xmlns:xlink="http://www.w3.org/1999/xlink" x="0px" y="0px" width="21px"
	 height="183.565px" viewBox="0 0 21 183.565" enable-background="new 0 0 21 183.565" xml:space="preserve">
<g id="Calque_1">
	<g>
		<path fill="#FFFFFF" d="M-106.097,8.054l-100.093,15.96l-76.318,17.54l1.425,212.777l73.747,67.566l1.74-74.756l42.522-8.01
			l3.149,66.354l61.18-26.111l-4.952-211.982c0,0,22.793,0.574,42.965-14.555S-39.373,3-39.373,3L-106.097,8.054z"/>
		<path d="M-36.468,3.385c-0.072-1.711-1.482-3.543-3.373-3.374C-61.69,1.959-83.54,3.91-105.392,5.861
			c-0.527-0.111-1.094-0.127-1.67-0.033c-31.258,5.033-92.138,14.839-98.405,15.847c0-0.002-0.004-0.014-0.004-0.014
			s-0.078,0.018-0.213,0.049c-0.201,0.033-0.316,0.051-0.316,0.051l0.004,0.021c-5.434,1.24-52.254,11.932-76.639,17.533
			c-1.242,0.287-1.99,1.02-2.35,1.906c-0.027,0.057-0.043,0.121-0.066,0.18c-0.031,0.092-0.066,0.182-0.09,0.275
			c-0.102,0.338-0.174,0.697-0.174,1.105c0,46.557,0,93.113,0,139.668c0,22.137,0,44.272,0,66.409c0,1.346,0,2.691,0,4.037
			c0,2.43,2.768,4.129,4.385,5.568c9.324,8.299,18.65,16.6,27.973,24.898c14.959,13.316,29.916,26.627,44.875,39.941
			c2.283,2.035,3.139,0.713,3.158-2.543c0.121-22.877,0.242-48.75,0.365-71.625c11.475-2.598,28.949-5.197,40.426-7.795
			c-0.01,21.266-0.016,45.533-0.025,66.799c0,2.943,0.008,4.291,2.447,3.143c20.813-9.783,41.624-19.566,62.435-29.35
			c1.09-0.512,1.809-1.93,1.787-3.094c-0.777-41.709-1.555-83.42-2.332-125.129c-0.521-28.094-1.045-56.188-1.568-84.281
			c15.777-1.443,32.066-6.863,44.404-16.736C-43.011,41.509-35.704,21.033-36.468,3.385z M-281.082,42.691l72.412-15.848
			c0.008,4.238,0.021,16.18,0.041,24.834l-72.453,15.338C-281.082,60.574-281.082,49.132-281.082,42.691z M-281.082,68.57
			l48.604-10.072l23.855-5.27c0.014,6.096,0.027,14.904,0.043,22.133l-72.502,15.348C-281.082,83.996-281.082,75.283-281.082,68.57z
			 M-281.082,163.353l68.561-14.48l-0.746-1.389l-67.814,14.314c0-6.715,0-15.428,0-22.141l63.57-13.379l-0.746-1.389
			l-62.824,13.211c0-6.715,0-15.428,0-22.143l58.582-12.275l-0.748-1.389l-57.834,12.111l-0.07-21.477l53.662-11.838l18.916-4.178
			c0.061,28.277,0.131,62.043,0.178,84.609c0.004,2.193,0.008,6.385,0.014,8.578l-72.699,15.393
			C-281.082,178.781-281.082,170.066-281.082,163.353z M-208.725,241.273l-71.243,16.008l0.75,1.5l70.465-15.963l0.023-2.709
			c-0.041,7.627-0.082,17.252-0.121,24.879l-49.727,11.002l2.786,0.898l46.921-10.342c-0.037,6.721-0.107,22.162-0.107,22.162
			l-26.206,5.781l1.729,1.193l24.457-5.414l-0.177,25.199c0,0-49.61-41.289-71.909-61.137c0-5.631,0-14.262,0-19.891l15.752-2.816
			l-0.748-1.389l-15.004,2.65c0-6.715,0-15.428,0-22.143l10.762-1.713l61.83-13.654
			C-208.568,210.008-208.646,226.641-208.725,241.273z M-208.471,193.814l-72.611,15.375c0-6.713,0-15.428,0-22.141l72.705-15.397
			c0.002,0.578,0.004,1.154,0.004,1.73C-208.404,179.527-208.438,187.672-208.471,193.814z M-101.944,268.869l-57.968,6.771
			c0.002-6.605,0.006-15.211,0.008-21.818l48.821-6.014l8.77-0.711C-102.19,253.688-102.067,262.279-101.944,268.869z
			 M-204.35,72.421l70.634-8.33l27.938-3.074l-0.064-1.488l-98.515,11.367c-0.014-6.977-0.029-15.738-0.041-21.781l67.854-7.99
			l30.332-3.443l-0.064-1.41l-98.13,11.379c-0.016-7.68-0.027-18.875-0.035-22.338c12.051-1.939,67.95-9.975,97.778-14.781
			c0.418,22.419,0.836,49.839,1.254,72.259l-25.9,2.82l0.426,1.443v0.002l25.539-2.777c0.123,6.59,0.246,15.18,0.369,21.77
			l-92.397,11.016l0.424,1.443l68.892-8.488v0.002l23.146-2.482c0.123,6.59,0.246,15.18,0.369,21.77l-21.109,2.232l-68.894,8.486
			l0.424,1.443l68.896-8.486l20.748-2.186c0.021,1.207,0.268,16.389,0.367,21.771l-18.713,1.936l-68.892,8.486l0.424,1.443v0.002
			l68.894-8.488l18.354-1.891c0.121,6.59,0.244,15.182,0.367,21.771l-16.316,1.643l-68.894,8.487l0.424,1.441v0.002l68.894-8.488
			v0.002l15.957-1.598c0,0,0.24,14.907,0.369,21.772l-13.922,1.346l-68.894,8.486l0.422,1.443l68.896-8.486l13.562-1.301
			c0.123,6.59,0.246,15.182,0.367,21.771l-101.206,11.729C-204.1,194.336-204.35,72.421-204.35,72.421z M-164.451,236.326
			c-12.18,2.758-39.539,8.273-39.539,8.273l-0.02-9.027l21.205-2.24l68.894-8.488l11.166-1.006
			c0.121,6.59,0.244,15.182,0.367,21.771l-57.524,6.717c0.002-3.494,0.002-8.988,0.004-12.482
			C-159.896,237.424-162.162,235.807-164.451,236.326z M-159.924,305.486c0-0.678,0.008-21.742,0.01-28.35l51.659-6.363l6.375-0.416
			c0.039,2.066,0.076,7.131,0.115,9.197C-120.151,288.199-141.538,296.842-159.924,305.486z M-101.519,65.333
			c0,0-0.297-18.703-0.422-25.504l51.191,0.09C-54.14,47.921-78.714,63.167-101.519,65.333z M-49.786,38.23h-52.223
			c-0.127-6.801-0.252-15.6-0.379-22.4h60.32C-43.345,23.019-45.96,32.046-49.786,38.23z M-41.55,14.23l-61.088,0.216v-4
			c19.318-1.724,42.125-3.665,61.441-5.39C-41.235,6.778-41.353,12.506-41.55,14.23z"/>
		<polygon fill="#FFFFFF" points="-127.474,206.195 -265.474,241.529 -263.323,97.724 -127.29,71.908 		"/>
		<path fill="#005550" d="M-231.453,125.486v0.78c0,5.383-3.872,9.517-9.467,9.517s-10.104-4.732-10.104-10.166
			c0-5.643,4.614-10.271,10.369-10.271c3.103,0,6.179,1.378,8.142,3.796l-1.75,1.638c-1.432-1.924-3.845-3.198-6.285-3.198
			c-4.482,0-7.982,3.562-7.982,7.957c0,4.107,3.448,8.008,7.771,8.008c3.103,0,6.444-2.626,6.55-5.824h-5.171v-2.236H-231.453z"/>
		<path fill="#005550" d="M-226.148,130.453l-2.281,4.914h-2.678l9.547-20.437l9.547,20.437h-2.678l-2.281-4.914H-226.148z
			 M-221.561,120.287l-3.554,7.93h7.107L-221.561,120.287z"/>
		<path fill="#005550" d="M-207.85,133.131h6.073v2.236h-8.565v-19.604h2.493V133.131z"/>
		<path fill="#005550" d="M-200.133,115.763h10.74v2.235h-8.247v5.486h8.008v2.236h-8.008v7.41h8.247v2.236h-10.74V115.763z"/>
		<path fill="#005550" d="M-173.878,135.367h-3.023l-5.888-8.294h-1.034v8.294h-2.493v-19.604h3.023c1.776,0,3.687,0.025,5.277,0.91
			c1.671,0.962,2.626,2.808,2.626,4.68c0,2.809-1.91,5.148-4.801,5.486L-173.878,135.367z M-183.823,125.045h0.795
			c2.547,0,5.305-0.468,5.305-3.588c0-3.068-2.971-3.511-5.437-3.511h-0.663V125.045z"/>
		<path fill="#005550" d="M-169.503,135.367h-2.492v-19.604h2.492V135.367z"/>
		<path fill="#005550" d="M-165.764,115.763h10.741v2.235h-8.248v5.486h8.009v2.236h-8.009v7.41h8.248v2.236h-10.741V115.763z"/>
		<path fill="#005550" d="M-249.91,143.826l15.01,15.419v-14.482h2.493v20.41l-15.01-15.418v14.612h-2.493V143.826z"/>
		<path fill="#005550" d="M-226.44,164.367h-2.493v-19.604h2.493V164.367z"/>
		<path fill="#005550" d="M-208.142,148.507c-1.432-1.248-3.395-1.925-5.277-1.925c-4.482,0-7.903,3.667-7.903,8.009
			c0,4.29,3.395,7.956,7.85,7.956c1.962,0,3.846-0.728,5.331-2.027v2.886c-1.538,0.884-3.5,1.378-5.251,1.378
			c-5.702,0-10.422-4.446-10.422-10.114c0-5.798,4.747-10.322,10.635-10.322c1.75,0,3.527,0.416,5.039,1.326V148.507z"/>
		<path fill="#005550" d="M-185.626,154.564c0,5.824-4.694,10.219-10.477,10.219c-5.781,0-10.475-4.395-10.475-10.219
			c0-5.616,4.747-10.218,10.475-10.218C-190.374,144.347-185.626,148.948-185.626,154.564z M-188.12,154.564
			c0-4.315-3.287-7.93-7.982-7.93c-4.693,0-7.982,3.614-7.982,7.93c0,4.473,3.66,7.931,7.982,7.931
			C-191.779,162.495-188.12,159.037-188.12,154.564z"/>
		<path fill="#005550" d="M-180.721,162.131h6.073v2.236h-8.566v-19.604h2.493V162.131z"/>
		<path fill="#005550" d="M-170.166,159.453l-2.28,4.914h-2.679l9.547-20.437l9.547,20.437h-2.679l-2.28-4.914H-170.166z
			 M-165.578,149.287l-3.554,7.93h7.107L-165.578,149.287z"/>
		<path fill="#005550" d="M-145.477,148.48c-0.743-1.222-1.697-1.846-3.209-1.846c-1.591,0-3.341,1.065-3.341,2.782
			c0,1.534,1.537,2.34,2.784,2.808l1.433,0.546c2.837,1.093,4.959,2.626,4.959,5.902c0,3.562-2.812,6.11-6.392,6.11
			c-3.235,0-5.755-2.34-6.179-5.486l2.52-0.52c-0.027,2.158,1.723,3.718,3.871,3.718s3.687-1.769,3.687-3.822
			c0-2.106-1.724-3.016-3.448-3.718l-1.379-0.572c-2.28-0.962-4.349-2.236-4.349-4.966c0-3.173,2.864-5.07,5.888-5.07
			c2.227,0,4.057,1.065,5.145,2.964L-145.477,148.48z"/>
		<path fill="#005550" d="M-237.87,181.667v-7.905h2.493v19.604h-2.493v-9.413h-9.521v9.413h-2.493v-19.604h2.493v7.905H-237.87z"/>
		<path fill="#005550" d="M-229.623,173.763v11.571c0,3.198,0.981,6.163,4.827,6.163c3.845,0,4.827-2.965,4.827-6.163v-11.571h2.493
			v12.403c0,4.316-2.731,7.617-7.319,7.617s-7.32-3.301-7.32-7.617v-12.403H-229.623z"/>
		<path fill="#005550" d="M-195.81,183.486v0.781c0,5.383-3.872,9.516-9.468,9.516s-10.104-4.732-10.104-10.167
			c0-5.642,4.614-10.27,10.369-10.27c3.104,0,6.18,1.378,8.143,3.796l-1.751,1.638c-1.433-1.924-3.845-3.198-6.285-3.198
			c-4.482,0-7.982,3.562-7.982,7.957c0,4.108,3.448,8.008,7.771,8.008c3.103,0,6.443-2.625,6.551-5.824h-5.172v-2.237H-195.81z"/>
		<path fill="#005550" d="M-173.798,183.564c0,5.825-4.694,10.219-10.477,10.219c-5.781,0-10.475-4.395-10.475-10.219
			c0-5.616,4.747-10.217,10.475-10.217C-178.546,173.347-173.798,177.948-173.798,183.564z M-176.292,183.564
			c0-4.315-3.287-7.929-7.982-7.929c-4.693,0-7.982,3.614-7.982,7.929c0,4.473,3.66,7.932,7.982,7.932
			C-179.951,191.496-176.292,188.037-176.292,183.564z"/>
	</g>
	
		<text transform="matrix(-4.371139e-08 1 -1 -4.371139e-08 7.332 3.0005)" fill="#3C3C3B" font-family="'FuturaStd-Light'" font-size="13">design web : Gentien ARNAULT</text>
</g>
<g id="Layer_2">
</g>
</svg>
